<svg width="85" height="70" viewBox="0 0 85 70" fill="none" xmlns="http://www.w3.org/2000/svg">
<path d="M82.6678 66.2221L83.1999 66.1562V66.1928L83.025 66.3464C82.7094 66.6163 82.4146 66.9098 82.1431 67.2243C81.7647 67.6365 81.4413 68.0964 81.1811 68.5924C80.9078 68.9962 80.7467 69.4659 80.7147 69.9531C80.7803 70.1213 81.0062 69.8433 81.7131 69.0167C82.159 68.5218 82.6467 68.0665 83.1707 67.656C83.4112 67.4804 83.6153 67.334 83.7756 67.2389L84.1619 66.9902L85 66.4342L84.191 65.4686L83.7246 64.9491L83.2873 64.4882C82.7905 63.9806 82.2544 63.5134 81.684 63.0909C81.6478 63.0847 81.6108 63.0847 81.5746 63.0909C80.7219 63.1421 80.8458 63.7567 80.9187 64.0347C80.9187 64.0859 80.9187 64.0859 80.9624 64.1078C81.4803 64.4964 81.9676 64.9244 82.4201 65.3881L82.5658 65.5344C81.2613 65.3515 79.4903 65.2344 79.4903 65.2344H67.4213V65.1979C67.4213 64.8394 67.4869 64.4663 67.5161 64.1664C67.5671 63.5299 67.6035 63.0617 67.6035 63.0617V28.3778C67.8203 28.5603 68.0669 28.7038 68.3323 28.8021C68.7422 28.9497 69.1874 28.9676 69.6077 28.8533C70.3029 28.6391 70.939 28.266 71.4662 27.7632C71.9504 27.3244 72.3988 26.8473 72.8072 26.3367C73.587 25.3585 74.3051 24.3323 74.9571 23.2641C75.5985 22.2325 76.218 21.201 76.7937 20.1622C77.918 18.1438 78.9373 16.0682 79.8474 13.9438C80.2264 13.0586 80.5762 12.1734 80.8896 11.2955L81.2102 11.6467C81.786 12.2904 82.369 12.9781 82.3399 12.9123C83.2946 13.9292 84.0453 14.4486 82.9011 12.5319C82.6387 12.049 82.3034 11.4857 81.9973 11.0175C81.6912 10.5493 81.4945 10.2859 81.3269 10.0591C81.3924 9.86893 81.458 9.67141 81.509 9.49584L81.7058 8.80083L81.8006 8.45699C81.8006 8.35457 81.9318 8.15706 81.7496 8.2668L80.4013 8.76426L80.1972 8.85205L80.0952 8.76426L79.8765 8.57405L79.3737 8.14974L79.3081 8.09853L79.2425 8.14974L79.1113 8.24485L78.8416 8.44237L78.5793 8.63988L78.4116 8.77158C77.6749 9.36822 76.9763 10.0108 76.32 10.6956L75.3142 11.7198L74.8041 12.21L74.5344 12.4514C74.3522 12.2612 75.9337 14.2949 75.2632 13.4171H75.307C75.3726 13.4829 75.4236 13.5561 75.307 13.4171L75.358 13.3805L75.5183 13.2781L78.0108 11.5223C78.4335 11.237 78.8635 10.9517 79.3008 10.6956L79.636 10.5054L79.8984 10.3664L79.7162 10.8785L79.4247 11.654C78.5978 13.7992 77.6488 15.8949 76.5824 17.9309C76.0382 18.9843 75.4551 20.0329 74.8332 21.0766C74.2065 22.1228 73.5724 23.1836 72.8728 24.1858C72.2016 25.2014 71.4112 26.1323 70.5187 26.9585C70.1324 27.3167 69.6604 27.5687 69.1486 27.6901C68.9333 27.7104 68.7165 27.6706 68.5223 27.5751C68.3281 27.4795 68.164 27.332 68.0481 27.1487C67.8565 26.877 67.6906 26.588 67.5525 26.2855V6.84022C67.5386 6.80693 67.5215 6.77508 67.5015 6.74511C67.5015 6.70122 67.5015 6.66465 67.3776 6.62076C67.2988 6.52179 67.1901 6.45115 67.0679 6.41949C66.9457 6.38783 66.8165 6.39684 66.6998 6.44516L66.1751 6.35738C64.8778 6.13059 63.0194 5.91843 63.0194 5.91843L61.8897 5.86724C59.594 5.77945 57.2983 5.67703 54.9734 5.70629C54.6309 5.70629 54.2811 5.70628 53.9312 5.74286C53.6086 5.75936 53.2873 5.79601 52.9692 5.85259C52.9692 5.85259 52.9036 5.85259 52.8672 5.85259H52.8235C52.7812 5.87416 52.742 5.90123 52.7068 5.93307C52.6228 6.02701 52.5495 6.13006 52.4882 6.24032C52.4638 6.28122 52.4509 6.32799 52.4509 6.37566C52.4509 6.42333 52.4638 6.47011 52.4882 6.511C52.5337 6.59188 52.5989 6.65986 52.6777 6.70854C52.6777 6.84022 52.634 6.99385 52.6121 7.16211C52.4372 8.47895 52.3206 10.3518 52.3206 10.3518L52.4153 32.1673C52.0145 31.721 51.6282 31.2455 51.2492 30.77C50.8655 30.2206 50.5104 29.6517 50.1852 29.0654C49.9957 28.7655 49.8062 28.4509 49.573 28.151C49.3415 27.8226 49.0642 27.5294 48.7495 27.2804C48.6313 27.1834 48.5045 27.0977 48.3705 27.0243V19.3209C48.3566 19.2876 48.3395 19.2557 48.3195 19.2258C48.3195 19.1819 48.3195 19.138 48.1956 19.0941C48.1151 18.9973 48.006 18.9289 47.8841 18.8986C47.7622 18.8683 47.6339 18.8779 47.5178 18.9258L46.9931 18.838C45.6958 18.6112 43.8373 18.3991 43.8373 18.3991L42.7077 18.3479C40.412 18.2601 38.1163 18.1577 35.7914 18.1869C35.4489 18.1869 35.0626 18.1869 34.7492 18.2235C34.4266 18.24 34.1053 18.2767 33.7872 18.3332C33.7872 18.3332 33.7216 18.3332 33.6852 18.3332H33.6706C33.6284 18.3548 33.5891 18.3819 33.554 18.4137C33.4699 18.5077 33.3966 18.6107 33.3353 18.721C33.3109 18.7619 33.298 18.8086 33.298 18.8563C33.298 18.904 33.3109 18.9508 33.3353 18.9917C33.3808 19.0726 33.446 19.1405 33.5248 19.1892C33.5248 19.3209 33.4811 19.4745 33.4665 19.6428C33.2843 20.9596 33.1677 22.8324 33.1677 22.8324L33.2697 40.7633C32.9272 40.6389 32.592 40.4926 32.264 40.339C31.3227 39.8791 30.4271 39.3304 29.5893 38.7002V30.77C29.5799 30.7347 29.5624 30.7022 29.5383 30.6749C29.5383 30.631 29.5383 30.5871 29.4144 30.5432C29.3354 30.4445 29.2263 30.3746 29.1038 30.3442C28.9813 30.3138 28.8523 30.3246 28.7366 30.375L28.2119 30.2871C26.9146 30.053 25.0634 29.8482 25.0634 29.8482L23.9265 29.797C21.6308 29.7092 19.3351 29.6068 17.0102 29.6361C16.6677 29.6361 16.2814 29.6361 15.968 29.6361C15.6478 29.653 15.329 29.6896 15.0133 29.7458C14.9768 29.7092 14.9404 29.7458 14.904 29.7458H14.8602C14.8201 29.7672 14.7833 29.7943 14.7509 29.8263C14.6648 29.9158 14.5912 30.0167 14.5323 30.1262C14.5037 30.1669 14.4884 30.2154 14.4884 30.2652C14.4884 30.315 14.5037 30.3635 14.5323 30.4042C14.5755 30.4844 14.6381 30.5524 14.7145 30.6017C14.7145 30.6017 14.7145 30.6456 14.7145 30.6676C14.6381 30.7569 14.5843 30.8634 14.5576 30.978C14.531 31.0926 14.5323 31.212 14.5614 31.326C14.5622 31.34 14.5658 31.3538 14.5721 31.3664C14.5783 31.379 14.5871 31.3901 14.5979 31.3992C14.4521 32.6721 14.3574 34.223 14.3574 34.223L14.4448 46.0745C13.4828 47.823 12.5864 49.5422 11.6244 51.137C11.0683 52.1177 10.4601 53.0677 9.80237 53.9828L9.31407 54.612L9.25576 54.6851L9.19018 54.7656C8.80709 55.2297 8.39315 55.6672 7.95121 56.0751C7.94641 56.1066 7.94641 56.1387 7.95121 56.1702C7.84189 56.9896 8.39578 57.092 8.73103 57.0189C8.74626 57.0192 8.76138 57.016 8.77525 57.0097C8.78912 57.0034 8.8014 56.994 8.8112 56.9823C9.28904 56.5471 9.73479 56.0777 10.1449 55.5777L10.2178 55.4972V55.4533L10.2615 55.4021C10.3563 55.2997 10.4364 55.1826 10.5239 55.0729C11.2141 54.1795 11.8517 53.2464 12.4333 52.2783C13.1621 51.1224 13.8035 49.9153 14.4667 48.6935L14.576 63.3762V65.2344H4.46755V5.78675C4.46755 5.78675 4.26348 2.33373 4.23433 2.48005C4.20209 2.14092 4.15099 1.80387 4.08128 1.47047C4.3807 1.65523 4.66356 1.86573 4.92669 2.09961C5.5243 2.61903 6.04904 3.24819 6.01989 3.18235C6.93818 4.18461 7.69613 4.77719 6.58835 2.80194C6.23497 2.16517 5.80678 1.57324 5.31295 1.03884C5.20439 0.923367 5.09007 0.813481 4.97042 0.709627L4.81737 0.570627L4.74449 0.512111L4.62059 0.424325L4.10315 0.0731618L3.98653 0L3.93552 0.0438926L3.71688 0.219486L3.30147 0.585272L2.87147 0.994952C2.67469 1.18516 2.48521 1.37535 2.29572 1.57288C1.81471 2.08498 1.37014 2.61904 0.932864 3.13846C0.927253 3.17482 0.927253 3.21183 0.932864 3.24819C0.932864 4.08218 1.51591 4.06755 1.822 3.97976C1.87302 3.97976 1.8803 3.97977 1.89488 3.94319C2.33216 3.41646 2.76215 2.91167 3.20672 2.42883L3.66587 1.96063L3.59299 2.49467C3.41079 3.80419 3.28689 5.68434 3.28689 5.68434V15.1948C3.23551 15.1423 3.17654 15.0979 3.11198 15.0631C2.90233 14.9308 2.6771 14.8251 2.44148 14.7485H0V15.941H2.33216C2.58078 15.8821 2.82445 15.8038 3.06096 15.7069C3.12663 15.6732 3.18785 15.6315 3.24316 15.5825V28.7509C3.09615 28.6717 2.94252 28.6056 2.78402 28.5533C2.78402 28.5533 2.22284 28.5533 1.68353 28.5533C1.46624 28.5488 1.24951 28.5292 1.0349 28.4948C1.0349 28.4948 1.0349 28.4948 1.0349 28.5533C1.0349 28.6118 0.976592 28.685 0.962016 28.7362C0.947386 28.7789 0.925159 28.8186 0.896422 28.8533L0.801679 28.685C0.722418 28.5518 0.605818 28.4449 0.466432 28.3778C0.466432 28.3778 0.466428 28.3778 0.4227 28.3778L0.357111 28.4363L0.284232 28.5094C0.237577 28.5729 0.198441 28.6417 0.167621 28.7143C0.133138 28.7978 0.115387 28.8873 0.115387 28.9776C0.115387 29.068 0.133138 29.1575 0.167621 29.241C0.188692 29.2843 0.213056 29.3259 0.2405 29.3654L0.298805 29.4385L0.437279 29.5556C0.494946 29.5909 0.555983 29.6203 0.619479 29.6434L0.750664 29.6873C1.05004 29.7526 1.35531 29.7869 1.66166 29.7897C2.25199 29.7897 2.81317 29.7897 2.81317 29.7897C2.81317 29.7897 3.09011 29.7019 3.2796 29.6287V44.1432L3.16299 44.0481C3.0024 43.9285 2.82573 43.8325 2.63825 43.7627L1.71268 43.814L1.07133 43.8579H0.845406H0.721511L0.597616 43.8944H0.524732L0.481005 43.931C0.411864 43.9822 0.35366 44.0467 0.309843 44.1209C0.266025 44.195 0.237488 44.2772 0.225926 44.3626C0.209325 44.4999 0.241034 44.6386 0.315564 44.7548C0.390094 44.871 0.502753 44.9575 0.634053 44.9991H0.728801C0.756898 44.9758 0.779834 44.9468 0.796147 44.914C0.81246 44.8813 0.82179 44.8455 0.823543 44.8089V44.6406V44.6845C0.823543 44.7796 0.87456 44.9772 0.881848 45.0357H1.07862L1.6981 44.9918L2.59453 44.9406C2.77242 44.869 2.94322 44.7808 3.10469 44.6772C3.14131 44.654 3.17342 44.6242 3.19943 44.5894V56.6019C3.04639 56.5214 2.92249 56.4702 2.92249 56.4702L0.575748 56.3385C0.571724 56.3553 0.571724 56.3729 0.575748 56.3897C0.539308 56.5214 0.481003 56.6238 0.575748 56.7848C0.517444 56.8872 0.451853 56.975 0.400837 57.0701C0.349821 57.1652 0.306093 57.1359 0.400837 57.2164C0.495581 57.2969 0.466429 57.3115 0.481005 57.3554C0.495581 57.3993 0.481008 57.4944 0.517448 57.5383L2.86419 57.67L3.22859 57.5749V65.4686C3.22679 65.4807 3.22679 65.493 3.22859 65.5051C3.18864 65.5797 3.16409 65.6616 3.15644 65.7459C3.14878 65.8303 3.15816 65.9153 3.18402 65.9959C3.20988 66.0765 3.25169 66.1511 3.30693 66.2151C3.36218 66.2791 3.42973 66.3312 3.50553 66.3684C3.51808 66.3743 3.53176 66.3773 3.54561 66.3773C3.55946 66.3773 3.57315 66.3743 3.5857 66.3684H79.381C79.381 66.3684 82.8063 66.2513 82.6678 66.2221ZM28.1463 30.9675H28.3649V33.7987C28.1244 33.4476 27.862 33.1403 27.862 33.1403C27.862 33.1403 27.0749 32.4892 26.3316 31.7796C26.0838 31.5381 25.836 31.2967 25.6028 31.048C26.6304 31.0334 28.241 30.9968 28.1463 30.9675ZM23.8755 31.026H23.9702C23.9702 31.026 24.1597 31.2602 24.4367 31.5601C24.7136 31.86 25.078 32.2478 25.4643 32.6136C26.1931 33.3451 27.0385 34.0036 27.0385 34.0036L27.5851 34.3181C27.7546 34.4257 27.9355 34.514 28.1244 34.5815L28.3576 34.6546V37.7565C28.0661 37.5151 27.7746 37.2737 27.4904 37.025L26.8927 36.4836L26.951 36.5275C27.3045 36.8349 27.7058 37.082 28.139 37.2591C28.2993 37.2591 28.139 36.9152 27.4102 36.0593C26.9875 35.5472 26.419 34.9692 25.9526 34.523L25.1509 33.7914L24.2763 33.0598C23.8391 32.6867 23.4018 32.3282 22.9718 31.9332C22.5418 31.5381 22.3013 31.304 21.9733 30.9748L23.8755 31.026ZM28.1317 52.9733C27.4685 52.1307 26.7631 51.3224 26.0182 50.5518L25.1655 49.8202C22.6365 47.5669 20.0639 45.4307 17.6953 43.0312L18.3803 41.7948C19.1091 42.5264 19.8379 43.258 20.5157 44.0261C21.7373 45.3789 23.0342 46.6613 24.4002 47.8669L25.129 48.5034L26.4919 49.5129C27.1697 50.0104 27.811 50.5152 27.7673 50.464L28.3431 50.8663V53.2513L28.1317 52.9733ZM28.3649 53.9902V56.4482L27.9058 55.9581C27.0385 54.9851 25.836 53.5658 25.836 53.5658L25.0416 52.7538C24.4221 52.132 23.7953 51.4955 23.1248 50.8956C22.4543 50.2957 21.7693 49.7397 21.0915 49.1691C19.7388 48.0778 18.4446 46.9154 17.2143 45.6868C16.9883 45.4527 16.7624 45.2113 16.5438 44.9552C16.6094 44.8601 16.6604 44.765 16.726 44.6626C16.7916 44.5602 16.9519 44.2822 17.0612 44.092C19.408 46.4257 21.9296 48.5326 24.3492 50.6761L25.078 51.3272L26.3899 52.3953C27.0385 52.922 27.6507 53.4634 27.6143 53.4049C27.8985 53.6244 28.1536 53.8219 28.3649 53.9828V53.9902ZM28.2702 49.9519C27.8109 49.4103 27.3244 48.8927 26.8126 48.4009L26.0255 47.6255L25.1655 46.8939C22.9791 45.0211 21.0915 42.7678 18.9925 40.6609C19.1456 40.4048 19.2986 40.1415 19.459 39.8854L19.6193 39.6294C21.1352 40.9242 22.6438 42.2045 24.1087 43.5286L24.8375 44.1797C24.8375 44.1797 25.5007 44.7211 26.1421 45.2625C26.7834 45.8038 27.3883 46.3525 27.3446 46.2867C27.6529 46.5658 27.9901 46.811 28.3503 47.0183V50.047L28.2702 49.9519ZM27.8766 45.8404C27.2282 44.9846 26.5349 44.1641 25.7995 43.3823L24.925 42.5776C23.4091 41.2169 21.864 39.9073 20.3262 38.5905L20.4939 38.3637C20.6688 38.1443 20.8437 37.9321 21.0259 37.7346C21.9879 38.5978 22.9499 39.4611 23.9411 40.3097L24.6699 40.9242C24.6699 40.9242 25.3987 41.4144 26.0255 41.9192C26.6522 42.424 27.2863 42.9507 27.2499 42.8922C27.5744 43.1922 27.9257 43.4615 28.2993 43.6969V46.5208C28.2483 46.3379 28.0953 46.1111 27.8766 45.8111V45.8404ZM27.8329 42.4752C27.4025 41.9083 26.9324 41.3729 26.4263 40.873C25.9672 40.4121 25.6246 40.0976 25.6246 40.0976L24.7428 39.366C23.8148 38.5759 22.8965 37.7663 21.9879 36.9372L22.0754 36.886C22.1956 36.809 22.3197 36.7382 22.4471 36.6738C22.6074 36.5809 22.7757 36.5025 22.9499 36.4397L23.963 37.3688L24.6918 38.0126C24.6918 38.0126 25.4206 38.5466 26.0765 39.0368C26.507 39.3608 26.9547 39.6611 27.4175 39.9366C27.7213 40.1179 28.0352 40.2815 28.3576 40.4268V43.2872C28.2064 42.9942 28.0334 42.7129 27.8402 42.4459L27.8329 42.4752ZM27.8693 39.4318L25.6538 37.1566L24.8229 36.4251C25.8104 37.1129 26.7435 37.876 27.6143 38.7076L28.4014 39.3221V39.8635C28.2337 39.7537 28.0734 39.5928 27.8402 39.4026L27.8693 39.4318ZM20.6761 30.9383C20.6507 31.0613 20.6507 31.1883 20.6761 31.3114C20.6666 31.3399 20.6666 31.3707 20.6761 31.3992C21.1571 31.9113 21.66 32.3941 22.1701 32.8623C22.6803 33.3305 23.0665 33.6378 23.5184 34.0109L24.2472 34.6327L25.2165 35.3643C24.7419 35.1268 24.2161 35.0112 23.686 35.0278C23.5238 35.0373 23.3628 35.0618 23.205 35.1009L19.7432 31.882L18.6792 30.9163C19.3861 30.8724 20.0274 30.887 20.6761 30.909V30.9383ZM17.0321 30.8944H17.4183C17.3813 31.0383 17.3813 31.1894 17.4183 31.3333C17.4094 31.3569 17.4094 31.3829 17.4183 31.4065C17.9285 31.8527 18.4241 32.3063 18.9197 32.7672L21.915 35.5545L21.6162 35.7081C21.4039 35.8226 21.2016 35.9548 21.0113 36.1032C19.5829 34.7863 18.186 33.4427 16.8207 32.0722L15.7129 30.9529C16.1794 30.887 16.6166 30.8724 17.0321 30.8651V30.8944ZM15.5745 34.4937C15.5745 34.4937 15.4943 33.3086 15.4214 32.3575L16.0045 32.9501C17.3673 34.3035 18.7447 35.635 20.1513 36.9372L20.0347 37.0615C19.8161 37.3103 19.612 37.559 19.4225 37.7931C18.6937 37.1713 17.9649 36.5567 17.2944 35.9203C16.7916 35.4667 16.296 35.0131 15.8368 34.5522C15.803 34.5466 15.7686 34.5466 15.7348 34.5522H15.6036L15.5745 34.4937ZM15.5745 36.0373C15.8733 36.3153 16.1648 36.5933 16.4709 36.864C17.1997 37.5297 17.9285 38.1808 18.7083 38.8246C18.497 39.1392 18.3002 39.4611 18.1034 39.783C17.9212 39.6074 17.7463 39.4318 17.5568 39.2636C17.0466 38.8027 16.5219 38.3491 15.968 37.9175H15.8587C15.769 37.9091 15.6787 37.9091 15.589 37.9175L15.5745 36.0373ZM15.5745 39.205C15.968 39.5196 16.347 39.8415 16.7187 40.178L17.4475 40.8657C17.2434 41.2242 17.0466 41.5973 16.8572 41.9265L16.7697 42.0801C16.4709 41.7656 16.1721 41.4437 15.8806 41.1071L15.7858 41.0706H15.589L15.5745 39.205ZM15.5745 42.6361L16.1065 43.2067C16.0482 43.3092 15.9899 43.4189 15.9243 43.5213C15.8587 43.6238 15.7057 43.8944 15.589 44.0846L15.5745 42.6361ZM15.5745 46.4988C15.6328 46.4037 15.6838 46.3013 15.7421 46.1989L15.815 46.0745C15.9607 46.2355 16.0992 46.3964 16.2522 46.55C17.5144 47.8076 18.8402 48.9992 20.2242 50.1201C20.8947 50.6834 21.5871 51.2394 22.2211 51.8101C22.8552 52.3807 23.4674 53.0025 24.0869 53.6244L24.7719 54.3194C24.7719 54.3194 25.4133 54.8973 26.0692 55.4533C26.4757 55.8114 26.9041 56.1437 27.3519 56.4482C27.6422 56.6563 27.9522 56.8352 28.2775 56.9823V59.0526L27.9495 58.6868C27.0749 57.6919 25.7631 56.3604 25.7631 56.3604L24.9104 55.6289C22.3377 53.339 19.8088 51.0126 17.1705 48.7374L15.6182 47.406L15.5745 46.4988ZM15.5745 48.9862L16.347 49.6519C18.9415 51.9125 21.4996 54.2316 24.0796 56.5287L24.8084 57.1798L26.1567 58.226C26.8271 58.7381 27.4904 59.2355 27.4466 59.177C27.7454 59.3819 28.0224 59.5574 28.2483 59.6818V62.6081L28.1025 62.4691C27.1551 61.5693 25.9161 60.2232 25.9161 60.2232C25.6392 59.9744 25.3768 59.7111 25.1072 59.455C22.5564 56.9823 20.2315 54.2023 17.4256 51.832C16.8863 51.3931 16.347 50.9541 15.7785 50.5591C15.7428 50.5491 15.705 50.5491 15.6692 50.5591H15.5963L15.5745 48.9862ZM15.6984 65.2491V64.3858L16.726 65.2491H15.6984ZM18.1253 65.2491C18.0199 64.9907 17.8854 64.7452 17.7244 64.5175L16.6312 63.5957L15.9024 62.9592L15.6984 62.769V61.9497C15.9024 62.1692 16.1138 62.3813 16.3324 62.5788L16.6604 62.8642C16.9155 63.0836 17.1778 63.2958 17.4475 63.4933C17.4475 63.4933 18.1763 63.9834 18.9051 64.4078C19.6339 64.8321 20.3627 65.2564 20.2898 65.2052L20.4137 65.271L18.1253 65.2491ZM21.2955 65.2491C21.1067 65.0365 20.9047 64.8362 20.6906 64.6492C20.2024 64.1883 19.5829 63.6835 19.1019 63.2811L18.2783 62.5496C17.9795 62.3301 17.6953 62.1033 17.4183 61.8765L17.1268 61.6131C16.6643 61.2156 16.2682 60.7464 15.9534 60.2232C15.9338 60.2019 15.9085 60.1867 15.8806 60.1793L15.6546 60.1134V58.4381L16.3324 59.0453C17.4693 60.0915 18.5698 61.1888 19.6922 62.2789L20.421 62.9592C20.421 62.9592 21.0842 63.5152 21.7474 64.0493C22.1621 64.3955 22.5978 64.7156 23.052 65.0077L23.3872 65.2198L21.2955 65.2491ZM24.1306 65.2491C23.9921 65.0808 23.788 64.8467 23.4819 64.5175L21.3466 62.1838L20.5303 61.401C19.4152 60.3183 18.3075 59.2063 17.1487 58.1455C16.6531 57.6919 16.1502 57.2457 15.6328 56.814V55.446L15.7421 55.5411L15.8295 55.6362L15.9389 55.7386L16.3106 56.0898L19.6995 59.2648L21.3976 60.8596L23.1467 62.4179L23.8755 63.0617L25.2165 64.1078C25.8797 64.6272 26.5283 65.1393 26.4773 65.0808L26.6449 65.1979L24.1306 65.2491ZM27.4393 65.2491L26.9656 64.6565C26.1202 63.625 24.7792 62.2935 24.7792 62.2935L23.9265 61.5619L22.2065 60.0183L20.6323 58.3723L17.2361 55.1826L16.8644 54.8315L16.7916 54.7656L16.7333 54.6998C16.6471 54.6118 16.5518 54.5333 16.449 54.4657C16.2704 54.3482 16.0798 54.2501 15.8806 54.173L15.7494 54.1218V51.9271C16.0992 52.1978 16.4782 52.4685 16.777 52.7465C19.4735 55.0143 21.7911 57.7724 24.4002 60.3036L25.129 60.984L25.5517 61.3205C25.8068 61.5254 26.1421 61.796 26.4919 62.0521C26.9206 62.3866 27.3711 62.6921 27.8402 62.9666C28.0588 63.0909 28.2629 63.2007 28.4451 63.2885C28.4451 63.6177 28.4961 64.1078 28.5253 64.598C28.5253 64.8101 28.5253 65.0223 28.569 65.2198L27.4393 65.2491ZM29.2905 65.2491C29.2905 64.8906 29.3561 64.5175 29.3925 64.2175C29.4362 63.5811 29.4727 63.1129 29.4727 63.1129V40.2219C29.8986 40.5229 30.3415 40.799 30.7991 41.0486C31.5505 41.4716 32.3414 41.8195 33.1604 42.0874L33.2843 63.3616V65.2198L29.2905 65.2491ZM42.6567 19.5989C42.7442 19.6574 42.8826 19.7525 43.0648 19.8915C43.247 20.0305 43.7135 20.4109 44.0706 20.7328C44.7994 21.3693 45.448 22.0789 45.448 22.0789C45.7548 22.3147 46.0734 22.5345 46.4027 22.7373C46.84 22.9861 47.2481 23.0226 46.9056 22.2838C46.7556 21.9274 46.5752 21.5847 46.3663 21.2595C46.3663 21.2595 45.6739 20.528 44.9087 19.833L44.6682 19.6208C45.6739 19.6208 47.0659 19.5623 46.9785 19.5404H47.1898V26.6147C47.0309 26.319 46.8506 26.0354 46.6505 25.766C46.0171 24.8903 45.3333 24.0524 44.6026 23.2567L43.7718 22.4739L41.6874 20.4548C41.3521 20.1402 41.0315 19.8183 40.7108 19.5038L42.6567 19.5989ZM46.5048 49.3447L44.4277 46.9451L43.6406 46.1404C42.4016 44.8601 41.1772 43.4994 39.9456 42.1825L39.3188 41.5095C39.7364 41.2427 40.1313 40.9418 40.4994 40.6097L42.9191 43.0824L43.5968 43.7774L44.865 44.9186C45.4844 45.4819 46.0893 46.0453 46.0456 45.9867C46.3729 46.3252 46.7612 46.5982 47.1898 46.7915V50.186C46.9786 49.8849 46.7498 49.5967 46.5048 49.3227V49.3447ZM47.1898 50.4932V53.8292C47.0878 53.6756 46.9566 53.4854 46.789 53.2659C46.0165 52.1905 44.7556 50.7859 44.7556 50.7859L43.9394 49.9957L41.9352 48.0863C41.2793 47.4645 40.6598 46.8061 40.0476 46.1257C38.9617 44.926 37.9049 43.675 36.8117 42.4679C37.2773 42.3968 37.7341 42.2766 38.1746 42.1094L39.0564 43.0531C40.2954 44.3773 41.4906 45.7087 42.766 47.0256L43.4511 47.7571C43.4511 47.7571 44.0997 48.3351 44.7556 48.8838C45.1603 49.2402 45.5836 49.5748 46.0238 49.886C46.3811 50.1385 46.7742 50.3358 47.1898 50.4713V50.4932ZM46.5704 45.5478C45.8124 44.4724 44.6026 43.0092 44.6026 43.0092L43.8082 42.1972L41.374 39.7025C41.5343 39.5196 41.6874 39.3294 41.8331 39.1392C42.1757 39.483 42.5619 39.8196 42.8899 40.1488L43.6187 40.8072L44.9524 41.8534C45.601 42.3801 46.1987 42.9214 46.1622 42.8629C46.4847 43.1653 46.8362 43.4349 47.2117 43.6676V46.5061C47.0276 46.1608 46.8129 45.8327 46.5704 45.5258V45.5478ZM46.6578 42.4459C46.2483 41.8762 45.8054 41.3314 45.3314 40.8145L44.6026 40.0171L43.7572 39.2855C43.3636 38.927 42.9774 38.5539 42.5984 38.1662C42.7015 38.0255 42.7964 37.879 42.8826 37.7273L43.3928 36.8055L43.8519 37.1932C43.8519 37.1932 44.537 37.7053 45.1711 38.2321C45.8051 38.7588 46.3882 39.3221 46.3444 39.2636C46.7234 39.6001 47.0732 39.9 47.2481 40.039V43.3384C47.0825 43.0145 46.8847 42.7081 46.6578 42.424V42.4459ZM46.8254 38.7881C46.4228 38.1996 45.977 37.642 45.4917 37.1201C45.0544 36.6445 44.7119 36.3153 44.7119 36.3153L43.8519 35.5838C43.9467 35.3277 44.0414 35.0643 44.1362 34.8156L44.4423 33.9816C45.12 34.4791 46.9493 35.8325 46.8764 35.7374L47.1898 35.9495V39.3514C47.1024 39.1904 46.9785 38.9929 46.8254 38.7588V38.7881ZM45.1127 32.9355L44.8868 32.7452L45.2658 31.7796C45.69 32.1117 46.1409 32.4078 46.6141 32.6648C46.8 32.7738 46.9922 32.8716 47.1898 32.9574V35.0497C46.3153 34.0913 45.1127 32.9355 45.1127 32.9355ZM47.0368 32.1381C46.5922 31.7211 46.0821 31.2163 45.6666 30.7846C45.8707 30.3018 46.0893 29.8336 46.3298 29.38C46.5802 29.5922 46.8737 29.747 47.1898 29.8336V32.2697L47.0368 32.1381ZM46.6287 28.8386C46.7236 28.6747 46.8308 28.5182 46.9493 28.3704C47.0203 28.2746 47.1009 28.1864 47.1898 28.1071V29.6068C47.025 29.3351 46.8373 29.0781 46.6287 28.8386ZM39.3042 19.4525C39.2787 19.5756 39.2787 19.7026 39.3042 19.8257C39.3039 19.8409 39.307 19.8561 39.3133 19.87C39.3196 19.884 39.329 19.8963 39.3406 19.9061C39.8265 20.3939 40.3124 20.8816 40.7983 21.3693L42.9409 23.3665L43.6697 24.0322C43.6697 24.0322 44.3256 24.5809 44.9524 25.1296C45.5792 25.6782 46.1768 26.2416 46.1404 26.1757C46.4117 26.4229 46.6963 26.6549 46.9931 26.8707C46.8846 26.898 46.7795 26.9372 46.6797 26.9878C46.4772 27.1153 46.2953 27.2732 46.1404 27.456C46.031 27.5876 45.9363 27.712 45.8415 27.8437L44.5297 26.183L43.8009 25.3344C42.2354 23.5084 40.5296 21.8083 38.6993 20.25C38.4442 20.0378 38.1527 19.7964 37.8612 19.5915C37.7883 19.5477 37.73 19.4965 37.6571 19.4452L39.3042 19.4525ZM34.1443 19.7086V19.533C34.722 19.4583 35.3037 19.4192 35.8861 19.416H36.2068C36.181 19.5365 36.181 19.6612 36.2068 19.7818C36.2068 19.833 36.2068 19.8476 36.2578 19.8695C36.5253 20.1439 36.8209 20.3891 37.1397 20.6011C37.402 20.784 37.6353 20.9815 37.8685 21.201C39.6558 22.717 41.3202 24.3731 42.8462 26.1538L43.4948 26.8853C43.4948 26.8853 44.107 27.4999 44.7265 28.0851L45.3314 28.6338C45.1856 28.8899 45.0617 29.1459 44.9305 29.402L44.7338 29.8482L44.005 29.1166L40.0476 25.1076C38.7139 23.7688 37.3948 22.4374 35.9226 21.1864C35.4046 20.7926 34.9173 20.3597 34.465 19.8915L34.3775 19.8549H34.1224C34.1346 19.807 34.142 19.758 34.1443 19.7086ZM34.3921 23.0153C34.3921 23.0153 34.3411 22.2106 34.2828 21.3912C34.5816 21.6619 34.8804 21.9033 35.1719 22.1228C36.5566 23.3006 37.8903 24.6467 39.2095 25.9636L43.1814 29.9726L43.9102 30.7042L44.2746 31.0114C44.1507 31.3114 44.0341 31.6186 43.9175 31.9259C41.323 29.797 39.1439 27.2365 36.5566 24.9467C36.0392 24.4931 35.4999 24.0468 34.946 23.6298C34.9098 23.6242 34.8729 23.6242 34.8367 23.6298C34.6908 23.6321 34.5469 23.6645 34.414 23.725L34.3921 23.0153ZM34.3921 24.7711C34.844 25.1149 35.2885 25.5027 35.7185 25.8611C37.0231 27.0097 38.2475 28.268 39.501 29.519C40.7468 30.7892 42.058 31.9931 43.4292 33.1257L43.3636 33.3013L42.8608 34.6839C41.8842 33.7987 40.9367 32.8769 40.0039 31.9478C39.3844 31.3187 38.743 30.7115 38.16 30.0677C37.577 29.4239 36.9356 28.7728 36.2651 28.151C35.7492 27.6584 35.1906 27.2128 34.5962 26.8195C34.5604 26.8095 34.5226 26.8095 34.4868 26.8195H34.4067L34.3921 24.7711ZM34.3921 28.2168C34.7419 28.4802 35.1209 28.7582 35.4197 29.0654C36.0465 29.6434 36.6441 30.2799 37.249 30.9236C37.8539 31.5674 38.5025 32.2039 39.122 32.833C40.1715 33.8719 41.2428 34.9107 42.3652 35.9057L42.2486 36.1251L41.7603 37.003C41.7165 37.0689 41.6728 37.1274 41.6364 37.1932C39.8435 35.2911 38.16 33.2354 36.2578 31.3406C35.7622 30.8578 35.2667 30.3823 34.7419 29.9214C34.7057 29.9157 34.6688 29.9157 34.6326 29.9214C34.5599 29.9139 34.4866 29.9139 34.414 29.9214L34.3921 28.2168ZM34.3921 31.326C34.7201 31.6259 35.0407 31.9332 35.3614 32.2478C37.2709 34.1352 39.0054 36.2495 40.8857 38.2467C40.7399 38.4442 40.5942 38.6344 40.4411 38.8173L36.0319 34.2303L35.6894 33.8792C35.5025 33.6812 35.3055 33.4932 35.099 33.3159C34.9388 33.1695 34.7879 33.0131 34.6472 32.8477C34.6232 32.842 34.5983 32.842 34.5743 32.8477H34.465L34.3921 31.326ZM34.3921 34.4059C34.5017 34.5029 34.6063 34.6055 34.7055 34.7132C34.7055 34.7132 34.7055 34.7132 34.7492 34.7571L35.0917 35.1082L39.5666 39.6952C39.45 39.7976 39.3407 39.9147 39.2168 40.0098C38.9603 40.2208 38.6846 40.4069 38.3932 40.5658L38.0288 40.1707L37.5697 39.6733L37.0668 39.1685L36.061 38.2467C35.5813 37.8253 35.1443 37.3572 34.7565 36.8494L34.669 36.8128C34.5819 36.8031 34.4939 36.8031 34.4067 36.8128L34.3921 34.4059ZM34.3921 38.3491C34.6617 38.6344 34.9387 38.8978 35.2084 39.1538L36.1995 40.0683C36.3599 40.2146 36.5129 40.3683 36.6587 40.5219L37.1178 41.0193L37.1688 41.0706C36.7232 41.1986 36.2622 41.265 35.7987 41.2681H35.6894L35.6165 41.1876L35.4853 41.034L35.325 40.8365C35.2156 40.6975 35.1063 40.5585 34.9678 40.4122C34.9321 40.3886 34.8927 40.3713 34.8512 40.3609C34.7888 40.3452 34.7255 40.333 34.6618 40.3243H34.567H34.4212L34.3921 38.3491ZM34.3921 42.3874L34.7784 42.4459H35.1136L35.3906 42.7459C36.6076 44.1066 37.7883 45.5258 39.0346 46.9085C39.6613 47.5962 40.3027 48.2766 40.9877 48.9277L42.9847 50.8298L43.7135 51.5028L44.9961 52.6221C45.6229 53.1708 46.2351 53.7195 46.1987 53.6609C46.485 53.9124 46.7895 54.1422 47.1097 54.3486V57.5529L47.0514 57.4871C46.6578 56.975 46.1914 56.3458 45.827 55.8337L45.1929 54.9412L44.4641 54.0633C41.7238 50.7346 38.3349 48.3205 35.8424 44.9772C35.4118 44.4694 34.9388 43.9995 34.4285 43.5725L34.3921 42.3874ZM34.3921 45.3137C34.5524 45.4819 34.7128 45.6502 34.8658 45.8331C35.5946 46.6817 36.3234 47.6547 37.1761 48.5034C38.0288 49.352 38.8451 50.164 39.6832 50.9614L40.9367 52.1685L41.5562 52.783C41.7603 52.9806 41.9643 53.1781 42.1538 53.3829C42.5401 53.7999 42.9191 54.2243 43.2835 54.6705L44.0997 55.6508C44.0997 55.6508 44.6828 56.2873 45.2949 56.8945C45.6704 57.29 46.0748 57.6568 46.5048 57.9919C46.7015 58.1455 46.891 58.2772 47.0586 58.3869V60.4207C46.2497 59.3818 45.0544 58.0504 45.0544 58.0504L44.2601 57.253C42.9045 55.8703 41.5562 54.3998 40.2006 52.9659L38.1746 50.8078L37.6644 50.2738L37.1251 49.7324L36.0683 48.7082C35.6019 48.2476 35.1638 47.759 34.7565 47.245C34.7565 47.245 34.6763 47.245 34.6618 47.2012C34.5753 47.1828 34.4876 47.1705 34.3994 47.1646L34.3921 45.3137ZM34.5087 65.2344V64.6931C34.7128 64.8979 34.9168 65.0881 35.0845 65.2344H34.5087ZM36.6076 65.2344C36.5206 65.0375 36.4157 64.8489 36.2943 64.6711C36.2943 64.6711 35.7768 64.2395 35.3322 63.7932C35.1419 63.6036 34.971 63.3953 34.8221 63.1714C34.7653 63.0881 34.7211 62.9969 34.6909 62.9007H34.6399H34.4941V61.9789C34.7128 62.2496 34.946 62.5276 35.2229 62.791C35.6675 63.2665 36.1339 63.7055 36.4838 64.0274L37.0741 64.5614L38.0434 65.2125L36.6076 65.2344ZM38.9252 65.2344C38.8767 65.1174 38.8182 65.0048 38.7503 64.8979C38.4985 64.4863 38.2185 64.0927 37.9122 63.7201L37.3292 63.186C36.9793 62.8714 36.5275 62.4545 36.1048 61.9863C35.7187 61.5842 35.363 61.1538 35.0407 60.6987C34.8958 60.4903 34.7643 60.2729 34.6472 60.0476H34.5889H34.4723V58.7673C34.7711 59.1112 35.0699 59.455 35.376 59.7915C35.8861 60.3622 36.4109 60.9181 36.9429 61.4741L37.628 62.2057C37.628 62.2057 38.2766 62.7837 38.9179 63.3323C39.5593 63.881 40.2079 64.4078 40.1642 64.3492C41.2793 65.1832 42.1101 65.5783 40.6598 63.881C39.8289 62.8568 38.6046 61.4522 38.6046 61.4522L37.8175 60.6475C37.2927 60.1061 36.7826 59.5501 36.2797 58.9941C35.7768 58.4381 35.3906 57.9845 34.9533 57.4724H34.8585C34.7286 57.447 34.5949 57.447 34.465 57.4724V55.6508L35.1938 56.4409C36.0975 57.4432 37.0085 58.4454 37.9414 59.4331L39.3552 60.8962C39.8362 61.3791 40.2808 61.8399 40.7327 62.3594L41.3813 63.0909C41.3813 63.0909 41.9935 63.6981 42.613 64.2834C43.2324 64.8686 43.6479 65.2125 43.7936 65.3222L38.9252 65.2344ZM44.6682 65.2344L44.3038 64.8028L42.3652 62.2935L41.6364 61.4522C41.1845 60.9474 40.6962 60.4353 40.2225 59.989C39.7488 59.5428 39.2896 59.0307 38.8305 58.5259C37.9049 57.5529 37.0012 56.5507 36.0975 55.5557L34.8294 53.9828C34.799 53.9622 34.7639 53.9497 34.7273 53.9463H34.5743V52.1539L35.529 53.1708C38.058 55.8191 40.6306 58.3723 43.1013 61.0425L43.7499 61.7741C43.7499 61.7741 44.3621 62.374 44.9451 62.9812C45.5282 63.5884 46.0602 64.2249 46.0602 64.1224C47.0295 65.0954 47.802 65.6441 46.6141 63.7274C46.0479 62.814 45.4323 61.9323 44.7702 61.0864L44.0414 60.2378C41.5708 57.5236 38.9398 54.9705 36.4619 52.3441L35.0699 50.881L34.9678 50.8444C34.8493 50.8297 34.7293 50.8297 34.6107 50.8444V48.7448C34.8731 49.0301 35.1428 49.3081 35.4124 49.5788L36.4765 50.6176L36.9866 51.1224L37.4895 51.6564L39.5156 53.8146C40.8784 55.2777 42.1975 56.6897 43.5968 58.1235L44.2892 58.8185L45.5865 59.9305C46.2351 60.4792 46.8619 61.0133 46.8181 60.9547L47.2627 61.2912V62.908C47.2627 62.908 47.321 63.7713 47.372 64.6126C47.372 64.8321 47.372 65.0442 47.4158 65.2344H44.6682ZM48.0935 65.2344C48.0935 64.876 48.1591 64.5029 48.1883 64.2029C48.2393 63.5664 48.2757 63.0982 48.2757 63.0982V28.7143L48.3851 28.8313C48.7771 29.3573 49.1327 29.9097 49.4491 30.4847C49.624 30.7846 49.7989 31.0846 50.0249 31.4065L50.1998 31.6406L50.3601 31.8381L50.6881 32.2405C51.1319 32.789 51.6038 33.314 52.1019 33.8133L52.3279 34.0328L52.4591 63.4348V65.3003L48.0935 65.2344ZM66.0439 7.05238H66.2553V9.87625C66.2207 9.79713 66.1792 9.72124 66.1314 9.64946C65.9259 9.2938 65.6945 8.95392 65.439 8.63258C65.439 8.63258 64.6373 7.90101 63.7555 7.23528L63.6316 7.14749C64.7758 7.1036 66.2698 7.067 66.1751 7.03774L66.0439 7.05238ZM61.2921 7.09627V7.16211C61.2921 7.19869 61.2921 7.19868 61.2921 7.19868C61.2921 7.19868 61.3504 7.1987 61.4452 7.25722C61.5399 7.31575 61.6711 7.35965 61.8314 7.44744C62.2334 7.675 62.6183 7.93172 62.9829 8.21558C63.7992 8.8301 64.5863 9.5324 64.5863 9.5324C64.5863 9.5324 65.6868 10.2201 65.6649 10.1616C65.835 10.2726 66.0419 10.3121 66.2407 10.2713V13.0147C66.0025 12.7259 65.7391 12.459 65.4536 12.2173C64.5134 11.3028 63.1068 10.0591 63.1068 10.0591L62.1958 9.37146C61.1698 8.58572 60.1043 7.85319 59.0037 7.17674L58.6101 6.94995L61.2921 7.09627ZM54.9297 6.94995H56.4675C56.4884 7.06865 56.5304 7.18264 56.5914 7.28649C56.5914 7.33039 56.6278 7.33769 56.6497 7.34501C57.2467 7.62529 57.8282 7.93789 58.3915 8.28142C59.4585 8.9338 60.4923 9.63944 61.4889 10.3957L62.2614 10.9809L63.6753 11.9247C64.4041 12.3929 65.0892 12.8318 65.0382 12.7806C65.4165 13.0212 65.826 13.2083 66.2553 13.3366V16.2629L65.9492 15.9776C64.9944 15.0704 63.5806 13.856 63.5806 13.856L62.6768 13.1683L59.0911 10.4469C57.8741 9.50314 56.5331 8.76425 55.3451 7.93026C55.0755 7.74005 54.8058 7.54985 54.558 7.34501L54.2009 7.05238L54.1426 7.00117L54.9297 6.94995ZM53.268 7.84247L53.3701 7.93758L53.7928 8.29604C54.077 8.51552 54.3612 8.72037 54.6455 8.92521C55.9136 9.8031 57.2108 10.52 58.3623 11.4126L62.0938 14.1121L62.8736 14.7046L64.3312 15.6411C65.06 16.0946 65.7888 16.5263 65.7014 16.4751C65.971 16.6214 66.2188 16.753 66.4302 16.8481V19.4525C65.4754 18.5381 64.0616 17.4773 64.0616 17.4773L63.1141 16.8555C62.4655 16.4312 61.8241 16.0068 61.1974 15.5679C60.5706 15.1289 59.9803 14.6827 59.3754 14.1998C58.1656 13.2488 56.9485 12.2539 55.6148 11.3906C55.3232 11.2077 55.0026 11.0029 54.6965 10.8419C54.3823 10.6455 54.0504 10.4789 53.7053 10.3445C53.6742 10.337 53.6417 10.337 53.6106 10.3445C53.5377 9.86162 53.4575 8.62526 53.3992 7.82785L53.268 7.84247ZM53.4575 11.6759L53.9458 11.9393C54.2446 12.1002 54.4851 12.2612 54.7766 12.4441C56.0375 13.2561 57.2254 14.2218 58.4207 15.1875C59.0256 15.663 59.6523 16.1605 60.3082 16.5994C60.9642 17.0384 61.5982 17.47 62.2469 17.8943L63.0631 18.4283L64.5207 19.2843C65.2495 19.7013 65.9419 20.1329 65.8909 20.0817L66.2261 20.2719V22.9275C66.1241 22.8251 66.0148 22.7154 65.8763 22.591C64.9216 21.6619 63.4421 20.5133 63.4421 20.5133L62.5092 19.8695C61.897 19.4452 61.2848 19.0136 60.6872 18.5747C60.0896 18.1357 59.5139 17.6748 58.8871 17.2213C57.6481 16.336 56.3946 15.5167 55.2431 14.6388C54.7111 14.2437 54.1863 13.8341 53.698 13.4024C53.6667 13.397 53.6346 13.397 53.6033 13.4024H53.4721L53.4575 11.6759ZM66.2261 38.9782C65.337 37.9906 63.9377 36.7323 63.9377 36.7323L63.0412 36.0373C62.4072 35.5399 61.7731 35.0717 61.1828 34.5742C60.5925 34.0767 59.9949 33.5427 59.4045 33.0086L58.6029 32.277L58.7559 31.9698L58.8652 31.7283L58.9235 31.6113C58.9235 31.6113 58.9235 31.5528 58.9235 31.5162V31.4504L59.0255 31.165C59.9074 31.8308 60.7965 32.4965 61.6638 33.1769L62.4291 33.7768L63.8138 34.7498C64.4916 35.2399 65.1475 35.7301 65.1038 35.6715C65.4423 35.9317 65.809 36.1525 66.197 36.33V38.9929L66.2261 38.9782ZM66.2261 39.7976V42.3728L65.9929 42.146L63.7263 39.9513L62.8663 39.2197C61.6784 38.1808 60.4467 37.1127 59.1713 36.1397L57.0724 34.5449C57.4103 34.2044 57.7086 33.8264 57.9615 33.4183L58.5664 33.945C59.1567 34.4791 59.7544 35.0131 60.3738 35.5325C60.9933 36.052 61.642 36.5421 62.2687 36.9957L62.9975 37.5883L64.3895 38.5613C65.1183 39.0368 65.7451 39.5196 65.7014 39.4611C66.0731 39.5855 66.2334 39.6879 66.3864 39.783L66.2261 39.7976ZM65.6066 35.2106C64.7321 34.2011 63.3401 32.9281 63.3401 32.9281L62.4436 32.1966C61.4597 31.4284 60.4686 30.6822 59.4701 29.936C59.6086 29.5336 59.7616 29.1386 59.9074 28.7435C60.4904 29.2117 61.0808 29.6726 61.693 30.1335L62.5092 30.6969L63.9668 31.5528C64.6956 31.9698 65.3588 32.416 65.3151 32.3648C65.6795 32.5916 65.9929 32.7818 66.2188 32.8989V35.9276C66.071 35.6757 65.9104 35.4315 65.7378 35.196L65.6066 35.2106ZM65.767 31.882C65.2684 31.3823 64.7403 30.9133 64.1855 30.4774L63.3182 29.7897L62.3926 29.1605C61.7148 28.6484 61.037 28.1071 60.3593 27.5657C60.556 27.0682 60.7674 26.5781 60.9933 26.1026L62.1011 26.9878L62.8736 27.595C62.8736 27.595 63.6024 28.0851 64.3312 28.546C64.7719 28.8498 65.2293 29.1282 65.7014 29.38C65.8981 29.4897 66.0876 29.5849 66.2553 29.6653V32.3795C66.1543 32.2035 66.0448 32.0326 65.9273 31.8674L65.767 31.882ZM66.0949 28.846C65.1329 27.9535 63.7409 26.7171 63.7409 26.7171L62.8517 26.0221L61.5691 24.9906C61.7119 24.7388 61.8676 24.4946 62.0355 24.259C62.122 24.1285 62.217 24.0039 62.3197 23.8859L62.6768 24.1419C62.6768 24.1419 65.592 25.9636 65.5046 25.8611L66.0512 26.1465L66.1095 26.2928L66.2261 26.5634V28.9776L66.0949 28.846ZM63.5514 23.1031C63.7545 23.0349 63.9649 22.9907 64.1782 22.9714C64.2747 22.9557 64.3731 22.9557 64.4697 22.9714C64.4971 22.9743 64.5236 22.983 64.5474 22.9969C64.5713 23.0107 64.592 23.0295 64.6082 23.0519C64.7709 23.248 64.9036 23.4675 65.0017 23.703C65.1402 23.9883 65.2859 24.2956 65.4609 24.5955C65.4954 24.6662 65.5343 24.7346 65.5775 24.8003C64.6956 24.0102 63.7045 23.2055 63.7045 23.2055L63.5514 23.1031ZM66.3864 23.7396L66.2188 23.4177L66.4156 23.5128V23.8054L66.3864 23.7396ZM53.6324 14.8071C53.975 15.0851 54.3175 15.3557 54.6746 15.6191C55.899 16.5263 57.1598 17.3456 58.3623 18.2089C58.9527 18.6332 59.543 19.1087 60.1552 19.555C60.7674 20.0012 61.3869 20.4402 62.0064 20.8645L62.808 21.4205L63.5368 21.8448C63.3911 21.8448 63.2599 21.918 63.1214 21.9545C63.0144 21.9863 62.9097 22.0254 62.808 22.0716L62.5165 22.2252L62.4363 22.2911C61.9408 21.9472 61.4452 21.6034 60.9787 21.2376C60.3884 20.784 59.8127 20.3085 59.2296 19.8257C58.0665 18.8238 56.85 17.886 55.5856 17.0164C54.9975 16.6286 54.3866 16.2768 53.7563 15.9629H53.6689L53.6324 14.8071ZM53.6324 17.3164C54.0551 17.5431 54.4706 17.7846 54.8787 18.0479C56.108 18.8921 57.2904 19.803 58.4207 20.7767C59.0037 21.2595 59.594 21.7424 60.2062 22.2398C60.6289 22.5764 61.0662 22.8836 61.5035 23.1836C61.3067 23.4323 61.1318 23.6884 60.9569 23.9151L60.7893 24.2078L59.2806 22.9714L57.393 21.4351L56.431 20.7036L55.9354 20.3304C55.7626 20.1985 55.5825 20.0764 55.3961 19.9647C54.8418 19.6613 54.3172 19.3061 53.8292 18.9039C53.8004 18.8973 53.7705 18.8973 53.7417 18.9039H53.6397L53.6324 17.3164ZM53.6324 20.2939C54.0187 20.5499 54.3977 20.7621 54.7402 20.9816C54.9078 21.0913 55.0317 21.1644 55.1993 21.2961L55.6731 21.6546L56.6205 22.3862L58.4935 23.9078L60.1843 25.2978C60.1042 25.4515 60.024 25.6124 59.9511 25.7734C59.8054 26.0952 59.6596 26.4244 59.5284 26.7463L59.1203 26.4318L55.6512 23.681C55.1058 23.325 54.5803 22.9391 54.077 22.5252H53.9895C53.8828 22.5166 53.7756 22.5166 53.6689 22.5252L53.6324 20.2939ZM53.6324 25.4149V23.8127C54.077 24.1566 54.5216 24.4126 54.9151 24.6906L58.3478 27.4194C58.581 27.595 58.8069 27.7779 59.0328 27.9608C58.8798 28.3704 58.734 28.7728 58.5956 29.1825C57.4975 28.3631 56.4067 27.534 55.3232 26.6951L53.7563 25.4515C53.7226 25.4453 53.688 25.4453 53.6543 25.4515L53.6324 25.4149ZM53.6324 26.9292L54.558 27.6608C55.7532 28.5972 56.9558 29.4971 58.1583 30.3969L58.0781 30.631L57.9178 31.0919L57.7429 31.4577C57.0956 30.9128 56.4166 30.4072 55.7095 29.9433C55.1143 29.5486 54.485 29.2082 53.8292 28.9264C53.7929 28.9223 53.7562 28.9223 53.7199 28.9264H53.6397L53.6324 26.9292ZM53.6324 30.214C54.1176 30.4341 54.5854 30.6909 55.0317 30.9822C55.7627 31.4682 56.4637 31.9983 57.1307 32.5697C56.9995 32.7892 56.8683 33.0013 56.7225 33.1988C56.571 33.405 56.3975 33.5939 56.2051 33.7621L55.4763 33.2134L53.8875 31.9698C53.8538 31.9636 53.8192 31.9636 53.7855 31.9698H53.6324V30.214ZM53.6324 33.3305L54.4341 33.9597C54.2772 33.8847 54.1283 33.794 53.9895 33.689C53.8656 33.6012 53.749 33.5061 53.6324 33.411V33.3305ZM53.6324 34.918L53.9531 35.1082C54.3371 35.3057 54.7607 35.4132 55.1921 35.4228C55.5045 35.4275 55.8146 35.3678 56.1031 35.2472L58.5227 37.0908C59.7762 38.0492 60.9569 39.0734 62.1667 40.1268L62.8955 40.7633C62.8955 40.7633 63.5878 41.2827 64.2802 41.7802C64.7154 42.1002 65.1679 42.3957 65.6358 42.6654C65.8763 42.8117 66.1095 42.9287 66.3063 43.0238V45.7819L66.2188 45.6868C65.3297 44.6992 63.9158 43.4921 63.9158 43.4921L63.0121 42.7605C61.744 41.7875 60.5123 40.8145 59.3244 39.761C58.1364 38.7076 56.861 37.6834 55.571 36.7031C55.0317 36.2861 54.4778 35.8764 53.9094 35.4813H53.8L53.6179 35.5179L53.6324 34.918ZM53.6324 36.7982L54.8422 37.6834C56.1031 38.6417 57.3274 39.6586 58.53 40.6901C59.7325 41.7216 61.0152 42.7605 62.2833 43.7408L63.0558 44.3334L64.4551 45.2917C65.1475 45.7599 65.8107 46.2428 65.767 46.1843C65.9637 46.3159 66.1459 46.4403 66.3136 46.5427V50.0982C65.4536 49.191 64.3895 48.1815 64.3895 48.1815L63.515 47.4499L59.4847 44.1066C58.1729 43.0239 56.9558 41.7656 55.5929 40.6097C55.0563 40.1535 54.4942 39.7285 53.9094 39.3367C53.8733 39.3298 53.8362 39.3298 53.8 39.3367H53.6397L53.6324 36.7982ZM53.6324 40.6682C54.026 40.9462 54.4122 41.2461 54.7912 41.5607C56.0958 42.6581 57.3129 43.9164 58.6903 45.0649L62.7279 48.4082L63.4567 49.0301C63.4567 49.0301 66.2334 51.0639 66.1459 50.9468L66.2771 51.0419V54.1145C65.4171 53.1781 64.3531 52.0954 64.3531 52.0954L63.5077 51.3638C62.1521 50.1348 60.8184 48.8691 59.4993 47.5889C58.8361 46.9305 58.202 46.3233 57.5315 45.6429C56.8544 44.9811 56.1363 44.3629 55.3815 43.792C54.8277 43.3677 54.2665 42.9727 53.6907 42.5849H53.6179L53.6324 40.6682ZM53.6324 44.0042C53.975 44.2456 54.3175 44.487 54.6527 44.7357C55.367 45.2771 56.0461 45.8636 56.6861 46.4915C57.3129 47.128 58.0052 47.7937 58.6539 48.4375C59.9803 49.7251 61.3286 50.998 62.6987 52.2417L63.4275 52.9001C63.4275 52.9001 64.1053 53.4342 64.7831 53.9463C65.4609 54.4584 66.1314 54.9412 66.0876 54.89L66.2844 55.0217V58.8332C66.1751 58.6576 66.0293 58.4454 65.8326 58.1748C65.0673 57.092 63.8721 55.6435 63.8721 55.6435L63.0923 54.8168C60.6581 52.2417 58.1801 49.6958 55.52 47.3036C55.0099 46.85 54.4924 46.4037 53.9677 45.9648H53.8584C53.7881 45.9568 53.7172 45.9568 53.647 45.9648L53.6324 44.0042ZM53.6324 47.3182L54.6965 48.2327C57.3129 50.5737 59.7981 53.1049 62.1958 55.6728L62.8663 56.4043C62.8663 56.4043 65.3734 58.7673 65.2932 58.643C65.595 58.9172 65.922 59.1622 66.2698 59.3745V61.7814C66.1969 61.679 66.1095 61.5693 66.0075 61.4449C65.1912 60.3987 63.9377 59.0087 63.9377 59.0087L63.1287 58.2113C60.4613 55.6216 57.8012 53.0318 55.1119 50.4786C54.6382 50.0396 54.179 49.6153 53.6543 49.1837L53.6324 47.3182ZM53.7199 65.2344V64.3346L53.8292 64.4297C54.2228 64.7662 54.6236 65.0662 54.8568 65.2344H53.7199ZM56.3509 65.2344C56.3509 65.1979 56.3509 65.1686 56.2998 65.132C56.1546 64.8716 55.9837 64.6266 55.7897 64.4004C55.7897 64.4004 55.1702 63.9761 54.6309 63.5152C54.3931 63.321 54.1757 63.1029 53.9823 62.8642C53.9248 62.7934 53.8781 62.7145 53.8438 62.63H53.7053V61.5254C54.1207 61.8107 54.6528 62.2057 55.1629 62.6227C56.2124 63.4713 57.2108 64.3931 57.2108 64.3931C57.2108 64.3931 58.1073 65.015 58.4279 65.2271L56.3509 65.2344ZM59.2661 65.2344C59.2046 65.0823 59.1264 64.9375 59.0328 64.8028C58.7482 64.362 58.4367 63.9393 58.1 63.5372C58.1 63.5372 57.0724 62.5934 55.9719 61.7009C55.4253 61.2474 54.8495 60.8231 54.405 60.5085C54.0843 60.2817 53.8292 60.1207 53.6762 60.0476V58.1528L54.405 58.7893C55.6512 59.8574 56.861 60.984 58.049 62.1179L58.7778 62.7837L60.1042 63.8664C60.7601 64.4005 61.4233 64.9052 61.3796 64.8467C61.5836 64.993 61.7877 65.1247 61.9626 65.2344H59.2661ZM62.6331 65.2344C62.4162 64.9233 62.1723 64.6319 61.9043 64.3639C61.0516 63.3616 59.7762 61.9936 59.7762 61.9936L58.9527 61.2181C57.7356 60.0842 56.5185 58.9356 55.2358 57.8455C54.7256 57.4139 54.2082 56.9823 53.6762 56.5726V54.6193C54.164 54.9807 54.6335 55.3664 55.0827 55.7752C57.6263 58.065 60.1042 60.428 62.6258 62.7763L63.3546 63.4421L64.6883 64.5102L65.6285 65.2418L62.6331 65.2344ZM64.2875 62.6373L63.5514 61.8619C61.0516 59.5355 58.5591 57.1505 55.9937 54.8461C55.4751 54.3664 54.9275 53.9193 54.3539 53.5073C54.3157 53.4971 54.2755 53.4971 54.2373 53.5073C54.0715 53.5054 53.9089 53.5539 53.7709 53.6463V50.8151L54.3685 51.3711C57.0651 53.9024 59.7325 56.4921 62.3853 59.0819L63.1141 59.7623C63.1141 59.7623 65.7232 62.0155 65.6431 61.8911C65.876 62.0871 66.1192 62.2703 66.3719 62.4398V62.908C66.3719 62.908 66.4302 63.7713 66.4812 64.6126V64.9564C65.6504 63.9469 64.3895 62.63 64.3895 62.63L64.2875 62.6373Z" fill="white"/>
</svg>
